<svg xmlns="http://www.w3.org/2000/svg" viewBox="0 0 433 497" width="433" height="497">
	<!-- Chimera: a ring assembled from four identical pixel modules - the
	     interchangeable cores - with the beast's eye at the center. The three
	     colored segments draw a C; the grey one closes the ring. -->
		<rect x="192" y="54" width="23" height="23" rx="6" fill="#2DB3A6"/>
	<rect x="192" y="28" width="23" height="23" rx="6" fill="#2DB3A6"/>
	<rect x="192" y="0" width="23" height="23" rx="6" fill="#2DB3A6"/>
	<rect x="218" y="54" width="23" height="23" rx="6" fill="#2DB3A6"/>
	<rect x="218" y="28" width="23" height="23" rx="6" fill="#2DB3A6"/>
	<rect x="218" y="0" width="23" height="23" rx="6" fill="#2DB3A6"/>
	<rect x="164" y="54" width="23" height="23" rx="6" fill="#2DB3A6"/>
	<rect x="164" y="28" width="23" height="23" rx="6" fill="#2DB3A6"/>
	<rect x="164" y="0" width="23" height="23" rx="6" fill="#2DB3A6"/>
	<rect x="246" y="54" width="23" height="23" rx="6" fill="#2DB3A6"/>
	<rect x="246" y="28" width="23" height="23" rx="6" fill="#2DB3A6"/>
	<rect x="246" y="0" width="23" height="23" rx="6" fill="#2DB3A6"/>
	<rect x="138" y="54" width="23" height="23" rx="6" fill="#2DB3A6"/>
	<rect x="138" y="28" width="23" height="23" rx="6" fill="#2DB3A6"/>
	<rect x="138" y="0" width="23" height="23" rx="6" fill="#2DB3A6"/>
	<rect x="272" y="82" width="23" height="23" rx="6" fill="#2DB3A6"/>
	<rect x="272" y="54" width="23" height="23" rx="6" fill="#2DB3A6"/>
	<rect x="272" y="28" width="23" height="23" rx="6" fill="#2DB3A6"/>
	<rect x="110" y="82" width="23" height="23" rx="6" fill="#2DB3A6"/>
	<rect x="110" y="54" width="23" height="23" rx="6" fill="#2DB3A6"/>
	<rect x="110" y="28" width="23" height="23" rx="6" fill="#2DB3A6"/>
	<rect x="300" y="54" width="23" height="23" rx="6" fill="#2DB3A6"/>
	<rect x="300" y="28" width="23" height="23" rx="6" fill="#2DB3A6"/>
	<rect x="84" y="54" width="23" height="23" rx="6" fill="#2DB3A6"/>
	<rect x="84" y="28" width="23" height="23" rx="6" fill="#2DB3A6"/>
	<rect x="56" y="190" width="23" height="23" rx="6" fill="#8A63E8"/>
	<rect x="30" y="190" width="23" height="23" rx="6" fill="#8A63E8"/>
	<rect x="2" y="190" width="23" height="23" rx="6" fill="#8A63E8"/>
	<rect x="56" y="162" width="23" height="23" rx="6" fill="#8A63E8"/>
	<rect x="30" y="162" width="23" height="23" rx="6" fill="#8A63E8"/>
	<rect x="2" y="162" width="23" height="23" rx="6" fill="#8A63E8"/>
	<rect x="56" y="216" width="23" height="23" rx="6" fill="#8A63E8"/>
	<rect x="30" y="216" width="23" height="23" rx="6" fill="#8A63E8"/>
	<rect x="2" y="216" width="23" height="23" rx="6" fill="#8A63E8"/>
	<rect x="56" y="136" width="23" height="23" rx="6" fill="#8A63E8"/>
	<rect x="30" y="136" width="23" height="23" rx="6" fill="#8A63E8"/>
	<rect x="2" y="136" width="23" height="23" rx="6" fill="#8A63E8"/>
	<rect x="56" y="244" width="23" height="23" rx="6" fill="#8A63E8"/>
	<rect x="30" y="244" width="23" height="23" rx="6" fill="#8A63E8"/>
	<rect x="2" y="244" width="23" height="23" rx="6" fill="#8A63E8"/>
	<rect x="84" y="108" width="23" height="23" rx="6" fill="#8A63E8"/>
	<rect x="56" y="108" width="23" height="23" rx="6" fill="#8A63E8"/>
	<rect x="30" y="108" width="23" height="23" rx="6" fill="#8A63E8"/>
	<rect x="84" y="270" width="23" height="23" rx="6" fill="#8A63E8"/>
	<rect x="56" y="270" width="23" height="23" rx="6" fill="#8A63E8"/>
	<rect x="30" y="270" width="23" height="23" rx="6" fill="#8A63E8"/>
	<rect x="56" y="82" width="23" height="23" rx="6" fill="#8A63E8"/>
	<rect x="30" y="82" width="23" height="23" rx="6" fill="#8A63E8"/>
	<rect x="56" y="298" width="23" height="23" rx="6" fill="#8A63E8"/>
	<rect x="30" y="298" width="23" height="23" rx="6" fill="#8A63E8"/>
	<rect x="192" y="324" width="23" height="23" rx="6" fill="#F6A821"/>
	<rect x="192" y="352" width="23" height="23" rx="6" fill="#F6A821"/>
	<rect x="192" y="378" width="23" height="23" rx="6" fill="#F6A821"/>
	<rect x="164" y="324" width="23" height="23" rx="6" fill="#F6A821"/>
	<rect x="164" y="352" width="23" height="23" rx="6" fill="#F6A821"/>
	<rect x="164" y="378" width="23" height="23" rx="6" fill="#F6A821"/>
	<rect x="218" y="324" width="23" height="23" rx="6" fill="#F6A821"/>
	<rect x="218" y="352" width="23" height="23" rx="6" fill="#F6A821"/>
	<rect x="218" y="378" width="23" height="23" rx="6" fill="#F6A821"/>
	<rect x="138" y="324" width="23" height="23" rx="6" fill="#F6A821"/>
	<rect x="138" y="352" width="23" height="23" rx="6" fill="#F6A821"/>
	<rect x="138" y="378" width="23" height="23" rx="6" fill="#F6A821"/>
	<rect x="246" y="324" width="23" height="23" rx="6" fill="#F6A821"/>
	<rect x="246" y="352" width="23" height="23" rx="6" fill="#F6A821"/>
	<rect x="246" y="378" width="23" height="23" rx="6" fill="#F6A821"/>
	<rect x="110" y="298" width="23" height="23" rx="6" fill="#F6A821"/>
	<rect x="110" y="324" width="23" height="23" rx="6" fill="#F6A821"/>
	<rect x="110" y="352" width="23" height="23" rx="6" fill="#F6A821"/>
	<rect x="272" y="298" width="23" height="23" rx="6" fill="#F6A821"/>
	<rect x="272" y="324" width="23" height="23" rx="6" fill="#F6A821"/>
	<rect x="272" y="352" width="23" height="23" rx="6" fill="#F6A821"/>
	<rect x="84" y="324" width="23" height="23" rx="6" fill="#F6A821"/>
	<rect x="84" y="352" width="23" height="23" rx="6" fill="#F6A821"/>
	<rect x="300" y="324" width="23" height="23" rx="6" fill="#F6A821"/>
	<rect x="300" y="352" width="23" height="23" rx="6" fill="#F6A821"/>
	<rect x="326" y="190" width="23" height="23" rx="6" fill="#4A5568"/>
	<rect x="354" y="190" width="23" height="23" rx="6" fill="#4A5568"/>
	<rect x="380" y="190" width="23" height="23" rx="6" fill="#4A5568"/>
	<rect x="326" y="216" width="23" height="23" rx="6" fill="#4A5568"/>
	<rect x="354" y="216" width="23" height="23" rx="6" fill="#4A5568"/>
	<rect x="380" y="216" width="23" height="23" rx="6" fill="#4A5568"/>
	<rect x="326" y="162" width="23" height="23" rx="6" fill="#4A5568"/>
	<rect x="354" y="162" width="23" height="23" rx="6" fill="#4A5568"/>
	<rect x="380" y="162" width="23" height="23" rx="6" fill="#4A5568"/>
	<rect x="326" y="244" width="23" height="23" rx="6" fill="#4A5568"/>
	<rect x="354" y="244" width="23" height="23" rx="6" fill="#4A5568"/>
	<rect x="380" y="244" width="23" height="23" rx="6" fill="#4A5568"/>
	<rect x="326" y="136" width="23" height="23" rx="6" fill="#4A5568"/>
	<rect x="354" y="136" width="23" height="23" rx="6" fill="#4A5568"/>
	<rect x="380" y="136" width="23" height="23" rx="6" fill="#4A5568"/>
	<rect x="300" y="270" width="23" height="23" rx="6" fill="#4A5568"/>
	<rect x="326" y="270" width="23" height="23" rx="6" fill="#4A5568"/>
	<rect x="354" y="270" width="23" height="23" rx="6" fill="#4A5568"/>
	<rect x="300" y="108" width="23" height="23" rx="6" fill="#4A5568"/>
	<rect x="326" y="108" width="23" height="23" rx="6" fill="#4A5568"/>
	<rect x="354" y="108" width="23" height="23" rx="6" fill="#4A5568"/>
	<rect x="326" y="298" width="23" height="23" rx="6" fill="#4A5568"/>
	<rect x="354" y="298" width="23" height="23" rx="6" fill="#4A5568"/>
	<rect x="326" y="82" width="23" height="23" rx="6" fill="#4A5568"/>
	<rect x="354" y="82" width="23" height="23" rx="6" fill="#4A5568"/>
	<rect x="192" y="108" width="23" height="23" rx="6" fill="#3B82F6"/>
	<rect x="192" y="136" width="23" height="23" rx="6" fill="#3B82F6"/>
	<rect x="192" y="244" width="23" height="23" rx="6" fill="#3B82F6"/>
	<rect x="192" y="270" width="23" height="23" rx="6" fill="#3B82F6"/>
	<rect x="164" y="136" width="23" height="23" rx="6" fill="#3B82F6"/>
	<rect x="164" y="162" width="23" height="23" rx="6" fill="#3B82F6"/>
	<rect x="164" y="190" width="23" height="23" rx="6" fill="#3B82F6"/>
	<rect x="164" y="216" width="23" height="23" rx="6" fill="#3B82F6"/>
	<rect x="164" y="244" width="23" height="23" rx="6" fill="#3B82F6"/>
	<rect x="218" y="136" width="23" height="23" rx="6" fill="#3B82F6"/>
	<rect x="218" y="162" width="23" height="23" rx="6" fill="#3B82F6"/>
	<rect x="218" y="190" width="23" height="23" rx="6" fill="#3B82F6"/>
	<rect x="218" y="216" width="23" height="23" rx="6" fill="#3B82F6"/>
	<rect x="218" y="244" width="23" height="23" rx="6" fill="#3B82F6"/>
	<rect x="192" y="162" width="23" height="23" rx="6" fill="#1F2937"/>
	<rect x="192" y="190" width="23" height="23" rx="6" fill="#1F2937"/>
	<rect x="192" y="216" width="23" height="23" rx="6" fill="#1F2937"/>
	<text x="216" y="473" text-anchor="middle" fill="#3D4451"
		font-family="ui-sans-serif, -apple-system, 'Segoe UI', Roboto, Helvetica, Arial, sans-serif"
		font-size="52" font-weight="800" letter-spacing="13">CHIMERA</text>
</svg>
